Format                                   : MPEG-TS
File size                                : 4.92 GiB
Duration                                 : 1h 59mn
Overall bit rate mode                    : Variable
Overall bit rate                         : 5 869 Kbps


Format                                   : MPEG Video
Format version                           : Version 2
Format profile                           : Main@Main
Format settings, BVOP                    : Yes
Format settings, Matrix                  : Custom
Format settings, GOP                     : M=3, N=12
Codec ID                                 : 2
Duration                                 : 1h 59mn
Bit rate mode                            : Variable
Bit rate                                 : 5 320 Kbps
Maximum bit rate                         : 10 000 Kbps
Width                                    : 720 pixels
Height                                   : 576 pixels
Display aspect ratio                     : 16:9
Frame rate                               : 25.000 fps
Standard                                 : PAL
Color space                              : YUV
Chroma subsampling                       : 4:2:0
Bit depth                                : 8 bits
Scan type                                : Interlaced
Scan order                               : Top Field First
Compression mode                         : Lossy
Bits/(Pixel*Frame)                       : 0.513
Stream size                              : 4.46 GiB (91%)

Format                                   : MPEG Audio
Format version                           : Version 1
Format profile                           : Layer 2
Codec ID                                 : 3
Duration                                 : 1h 59mn
Bit rate mode                            : Constant
Bit rate                                 : 256 Kbps
Channel(s)                               : 2 channels
Sampling rate                            : 48.0 KHz
Compression mode                         : Lossy
Delay relative to video                  : -496ms
Stream size                              : 220 MiB (4%)
Language                                 : Norwegian

